<svg xmlns="http://www.w3.org/2000/svg" width="150" height="50" viewBox="0,0,150,50"><path fill="#222" d="M40.51 18.41L40.50 18.40L40.62 18.51Q39.87 18.88 39.72 19.68L39.74 19.69L39.69 24.78L39.71 24.81Q40.84 24.79 43.05 24.52L43.06 24.54L42.99 24.47Q43.01 24.94 42.97 25.78L42.90 25.71L42.86 25.67Q43.00 26.61 43.00 27.07L42.99 27.06L41.35 27.09L41.45 27.19Q40.58 27.20 39.71 27.20L39.64 27.14L39.73 27.22Q39.65 31.33 39.58 39.71L39.56 39.69L39.69 39.82Q37.47 39.88 35.98 40.57L35.83 40.41L35.84 40.42Q37.05 34.40 36.94 27.17L36.82 27.05L36.79 27.02Q36.22 27.06 34.92 26.79L34.82 26.69L34.97 26.84Q34.97 25.85 34.78 23.91L34.76 23.89L34.63 23.76Q35.91 24.43 36.86 24.62L36.81 24.57L36.85 24.61Q36.77 23.92 36.47 21.44L36.41 21.39L36.40 21.38Q36.19 19.34 36.19 18.39L36.18 18.38L36.27 18.47Q36.25 16.78 37.66 16.21L37.68 16.23L37.70 16.24Q38.37 15.73 43.20 14.90L43.21 14.91L43.36 15.06Q44.17 14.91 45.00 14.79L44.91 14.70L45.03 14.82Q44.72 15.50 44.57 16.37L44.63 16.44L44.23 17.90L44.16 17.83Q43.62 17.79 43.13 17.91L43.14 17.91L43.11 17.89Q42.42 17.81 40.52 18.42ZM46.08 19.68L46.09 19.68L46.01 19.61Q46.41 17.46 47.02 14.91L47.01 14.90L46.92 14.81Q46.43 15.26 45.13 15.87L45.08 15.83L45.45 14.09L45.51 14.15Q44.25 14.30 41.77 14.83L41.74 14.80L41.68 14.75Q40.62 14.94 37.43 15.86L37.41 15.84L37.29 15.72Q35.88 16.30 35.88 18.16L35.89 18.16L35.84 18.12Q35.75 18.33 35.82 18.67L35.89 18.74L35.85 18.69Q36.08 20.03 36.19 21.36L36.30 21.47L36.32 23.96L36.45 24.09Q35.06 23.69 34.41 23.24L34.42 23.24L34.41 23.23Q34.41 24.08 34.45 25.10L34.48 25.13L34.62 27.14L34.58 27.10Q35.33 27.31 36.13 27.39L36.10 27.36L36.16 29.51L36.64 29.62L36.46 29.43Q36.47 35.69 35.48 41.13L35.41 41.06L35.53 41.18Q36.48 40.64 37.66 40.38L37.55 40.27L37.52 42.48L37.43 42.40Q38.69 42.14 39.99 42.10L39.94 42.05L39.96 42.07Q41.13 41.99 42.39 42.25L42.47 42.33L42.39 42.25Q41.53 37.25 41.53 29.29L41.71 29.46L41.66 29.42Q42.82 29.47 44.91 29.55L44.80 29.44L44.76 27.53L44.79 27.56Q44.82 26.64 44.86 25.69L44.80 25.63L44.82 25.65Q44.33 25.73 43.26 25.99L43.29 26.02L43.25 25.98Q43.26 25.31 43.38 23.98L43.46 24.06L43.41 24.01Q42.67 24.34 41.87 24.41L41.70 24.24L41.81 24.35Q41.69 22.82 41.80 21.41L41.96 21.58L41.81 21.42Q42.06 20.87 42.60 20.53L42.57 20.51L42.47 20.41Q43.44 19.74 44.26 19.67L44.33 19.73L44.38 19.79Q45.22 19.73 46.06 19.66Z"/><path d="M3 39 C69 42,68 9,131 37" stroke="#777" fill="none"/><path fill="#333" d="M75.44 47.01L75.60 47.17L75.49 47.06Q74.64 47.35 72.74 47.66L72.68 47.60L72.67 47.59Q73.95 45.41 74.98 44.11L74.97 44.10L74.94 44.08Q76.72 44.40 76.87 44.40L76.87 44.41L76.80 44.33Q77.22 44.53 77.76 44.41L77.64 44.30L77.80 44.45Q78.44 44.34 78.63 44.34L78.61 44.31L78.61 44.31Q81.12 44.01 81.05 41.84L81.11 41.91L81.03 41.83Q81.04 40.39 80.93 34.15L81.01 34.23L80.89 34.11Q80.91 30.63 80.99 26.48L80.91 26.40L82.31 26.20L82.35 26.24Q83.09 26.22 83.77 25.99L83.63 25.85L83.80 26.01Q83.38 30.24 83.41 34.62L83.48 34.68L83.50 34.70Q83.50 39.04 84.03 43.42L84.05 43.43L84.06 43.44Q84.16 43.78 84.16 44.04L84.14 44.03L84.24 44.13Q84.09 45.60 82.41 45.99L82.44 46.02L82.42 45.99Q79.35 46.43 75.51 47.07ZM82.29 22.88L80.21 19.81L80.10 19.70Q81.11 18.27 82.94 15.49L83.11 15.65L82.93 15.48Q83.62 16.39 84.95 18.22L84.95 18.23L82.36 22.95ZM85.36 49.54L85.22 49.41L85.33 49.51Q85.79 49.48 86.55 49.13L86.64 49.23L86.56 49.15Q86.87 48.43 86.87 47.97L86.94 48.04L86.90 48.00Q86.88 47.64 86.76 47.03L86.78 47.04L86.76 47.02Q85.36 40.56 85.36 32.64L85.35 32.63L85.44 32.72Q85.43 29.86 85.58 26.97L85.62 27.00L85.65 27.03Q85.00 27.10 83.86 27.41L83.84 27.39L83.87 27.42Q84.02 27.07 84.06 26.54L84.06 26.54L84.01 25.32L84.06 25.36Q82.44 26.11 80.65 26.15L80.48 25.98L80.57 26.06Q80.53 30.40 80.57 33.98L80.52 33.93L80.59 41.73L80.69 41.83Q80.77 43.81 78.60 43.93L78.59 43.91L78.50 43.82Q78.32 43.87 77.81 43.93L77.93 44.06L77.84 43.97Q77.28 43.98 77.02 43.98L77.15 44.11L76.98 43.95Q76.51 43.93 74.95 43.51L75.09 43.65L74.99 43.55Q74.51 44.13 73.40 45.81L73.37 45.78L72.01 48.26L71.96 48.21Q72.80 47.98 74.43 47.60L74.44 47.60L73.96 48.30L73.36 48.89L73.44 48.97Q75.74 48.83 77.07 48.91L77.02 48.86L77.01 48.85Q79.45 49.16 85.39 49.57ZM82.18 23.52L82.23 23.57L82.54 23.01L82.65 23.12Q82.88 23.42 83.83 25.02L83.95 25.14L83.88 25.07Q85.47 22.01 87.03 18.93L87.01 18.91L87.06 18.96Q85.99 17.29 85.04 15.99L84.98 15.92L85.04 15.99Q84.88 16.25 84.54 16.78L84.48 16.72L84.61 16.85Q84.10 16.12 83.11 14.82L83.13 14.84L83.09 14.80Q81.93 16.42 79.61 19.77L79.67 19.83L79.65 19.82Q80.44 20.91 82.15 23.50Z"/><path fill="#444" d="M54.44 47.15L54.42 47.13L54.32 47.03Q53.38 47.23 51.48 47.54L51.58 47.64L51.61 47.67Q52.83 45.43 53.86 44.14L53.82 44.10L53.81 44.08Q55.67 44.49 55.82 44.49L55.65 44.33L55.72 44.40Q56.11 44.56 56.64 44.45L56.67 44.47L56.63 44.43Q57.29 44.33 57.48 44.33L57.53 44.38L57.49 44.34Q60.01 44.04 59.94 41.87L59.89 41.83L59.95 41.89Q59.97 40.47 59.86 34.22L59.68 34.05L59.74 34.10Q59.75 30.61 59.82 26.46L59.83 26.46L61.21 26.24L61.16 26.19Q61.93 26.21 62.62 25.98L62.54 25.90L62.57 25.93Q62.30 30.30 62.34 34.68L62.32 34.66L62.37 34.72Q62.44 39.13 62.98 43.51L62.93 43.46L63.00 43.53Q63.08 43.84 63.08 44.10L63.08 44.10L63.04 44.07Q62.99 45.65 61.31 46.03L61.26 45.98L61.28 46.00Q58.23 46.45 54.38 47.09ZM61.10 22.82L58.92 19.66L59.01 19.75Q59.94 18.24 61.77 15.46L61.84 15.53L61.81 15.50Q62.63 16.55 63.96 18.37L63.91 18.32L61.16 22.89ZM64.09 49.42L64.16 49.48L64.25 49.58Q64.75 49.58 65.51 49.23L65.38 49.11L65.52 49.25Q65.84 48.54 65.84 48.09L65.78 48.02L65.76 48.00Q65.70 47.60 65.59 46.99L65.65 47.05L65.63 47.03Q64.32 40.66 64.32 32.75L64.35 32.77L64.32 32.74Q64.25 29.82 64.40 26.93L64.38 26.90L64.51 27.03Q63.83 27.08 62.69 27.38L62.75 27.45L62.87 27.57Q62.73 26.93 62.77 26.39L62.81 26.44L62.92 25.37L62.84 25.28Q61.26 26.07 59.47 26.11L59.47 26.10L59.34 25.98Q59.37 30.38 59.41 33.96L59.39 33.95L59.47 41.75L59.45 41.73Q59.61 43.79 57.44 43.91L57.50 43.97L57.53 44.00Q57.30 44.00 56.79 44.06L56.72 43.99L56.79 44.06Q56.20 44.04 55.93 44.04L55.96 44.06L55.90 44.00Q55.52 44.08 53.95 43.66L53.96 43.67L53.89 43.60Q53.48 44.25 52.38 45.93L52.25 45.80L50.76 48.16L50.87 48.27Q51.64 47.97 53.28 47.59L53.29 47.60L52.75 48.24L52.34 49.01L52.37 49.04Q54.52 48.76 55.86 48.84L56.01 48.99L55.89 48.86Q58.27 49.12 64.21 49.53ZM61.11 23.59L61.02 23.50L61.49 23.10L61.37 22.98Q61.78 23.47 62.73 25.06L62.71 25.04L62.70 25.03Q64.39 22.08 65.95 19.00L65.94 18.99L65.93 18.98Q64.78 17.22 63.83 15.92L63.87 15.96L63.92 16.01Q63.73 16.24 63.39 16.77L63.36 16.74L63.43 16.81Q63.01 16.17 62.02 14.87L61.91 14.77L61.96 14.81Q60.74 16.37 58.42 19.72L58.46 19.77L58.52 19.82Q59.35 20.96 61.07 23.55Z"/><path fill="#222" d="M116.91 14.27L116.89 14.26L116.89 14.25Q119.52 16.05 121.27 16.47L121.15 16.35L121.30 16.49Q122.57 22.93 122.57 29.52L122.64 29.60L122.49 29.45Q122.56 33.51 122.03 37.51L121.95 37.43L121.94 37.43Q124.23 37.01 126.71 37.09L126.64 37.03L126.76 37.14Q129.26 37.25 131.39 37.97L131.41 37.99L131.40 37.98Q131.70 39.49 132.16 41.05L132.12 41.02L132.13 41.03Q128.68 39.60 124.84 39.86L124.73 39.76L124.79 39.82Q120.95 40.08 117.71 41.99L117.75 42.03L117.79 42.07Q120.03 35.24 119.76 28.24L119.78 28.25L119.71 28.19Q119.39 21.05 116.95 14.31ZM117.15 42.68L117.30 42.84L117.27 42.81Q118.00 42.47 119.37 41.75L119.32 41.69L119.26 41.64Q119.15 42.43 118.61 43.92L118.65 43.95L118.55 43.86Q122.25 42.34 126.09 42.34L125.90 42.15L126.04 42.28Q131.68 42.29 135.79 45.34L135.82 45.37L135.66 45.21Q135.15 43.86 134.13 40.89L134.01 40.78L134.08 40.85Q132.90 40.08 132.02 39.70L132.08 39.76L132.13 39.81Q131.86 38.97 131.56 37.56L131.72 37.72L131.58 37.58Q128.95 36.67 125.94 36.67L126.05 36.77L126.08 36.81Q125.31 36.80 124.51 36.83L124.35 36.67L124.35 36.67Q124.75 31.90 124.68 27.79L124.62 27.73L124.61 27.72Q124.52 23.60 124.18 18.61L124.17 18.60L124.18 18.61Q122.73 18.46 121.94 18.27L121.99 18.32L121.91 18.25Q121.89 17.62 121.67 16.21L121.57 16.11L121.55 16.09Q118.52 15.34 116.27 13.40L116.39 13.53L116.24 13.37Q119.08 20.55 119.35 28.05L119.30 28.00L119.40 28.11Q119.56 35.54 117.16 42.69Z"/><path d="M3 12 C57 40,81 1,138 39" stroke="#444" fill="none"/><path d="M13 41 C56 35,76 31,134 28" stroke="#444" fill="none"/><path fill="#333" d="M102.51 29.70L102.44 29.63L102.46 29.64Q98.30 29.48 97.73 32.53L97.81 32.61L97.80 32.60Q97.59 33.65 97.78 34.52L97.77 34.51L97.78 34.52Q97.81 35.31 98.26 36.72L98.32 36.78L98.32 36.77Q99.25 39.80 102.57 39.65L102.68 39.76L102.74 39.82Q104.73 39.87 106.06 38.31L106.03 38.28L105.95 38.20Q107.21 36.76 107.21 34.70L107.23 34.72L107.24 34.73Q107.35 34.12 107.20 33.05L107.16 33.01L107.18 33.03Q107.17 32.19 106.75 31.50L106.65 31.40L106.68 31.43Q105.07 29.78 102.48 29.66ZM107.40 48.21L107.44 48.25L107.38 48.19Q105.53 48.74 97.46 49.12L97.42 49.08L97.40 49.07Q95.71 49.12 94.07 48.29L94.13 48.35L94.11 48.32Q94.99 47.41 96.81 45.62L96.77 45.58L96.86 45.67Q99.30 46.74 101.39 46.55L101.33 46.48L101.37 46.52Q104.26 46.25 105.09 45.98L105.09 45.98L105.07 45.96Q107.23 45.19 107.23 43.40L107.24 43.41L107.39 43.56Q107.35 43.29 107.27 43.06L107.17 42.95L107.19 41.49L107.19 41.49Q107.18 40.72 107.18 39.93L107.08 39.82L107.19 39.94Q105.73 42.09 102.34 42.09L102.28 42.03L102.42 42.17Q98.41 42.04 96.77 39.83L96.84 39.90L96.79 39.85Q95.71 38.35 94.91 33.94L94.95 33.97L94.89 33.91Q94.54 32.35 94.54 30.94L94.56 30.96L94.69 31.09Q94.58 29.19 95.50 28.20L95.58 28.29L95.50 28.20Q97.30 26.93 101.95 26.93L101.81 26.79L103.60 27.02L103.67 27.08Q106.71 27.27 108.05 29.22L108.09 29.26L108.09 29.26Q108.41 28.55 108.83 26.92L108.79 26.88L108.79 26.88Q110.58 26.46 112.33 25.73L112.36 25.76L112.22 25.63Q109.75 31.91 109.75 39.14L109.56 38.96L109.73 39.12Q109.75 41.80 110.13 44.43L109.94 44.25L110.03 44.33Q110.15 44.95 110.08 45.64L110.10 45.66L110.07 45.63Q109.88 47.00 108.66 47.76L108.67 47.77L108.70 47.80Q108.26 48.12 107.42 48.24ZM110.46 51.23L110.41 51.19L110.38 51.15Q111.78 51.15 112.54 50.20L112.68 50.34L112.58 50.23Q112.93 49.29 112.82 48.57L112.79 48.54L112.77 48.52Q112.71 47.92 112.52 47.16L112.46 47.10L112.47 47.12Q111.29 41.94 111.63 36.69L111.75 36.81L111.58 36.63Q112.03 31.30 114.17 26.47L114.23 26.53L112.15 27.50L111.98 27.33Q112.27 26.78 112.50 26.21L112.58 26.29L112.97 25.04L112.94 25.01Q110.64 26.03 108.43 26.44L108.38 26.39L108.38 26.39Q108.22 27.41 108.07 28.44L107.99 28.36L107.89 28.26Q105.79 26.35 101.75 26.35L101.71 26.31L100.02 26.37L100.11 26.46Q96.86 26.44 95.19 27.85L95.25 27.92L95.15 27.81Q94.33 28.90 94.37 30.80L94.32 30.76L94.34 30.78Q94.33 33.20 95.36 37.46L95.31 37.42L95.30 37.41Q95.83 39.38 97.04 40.79L97.12 40.87L97.37 41.11L97.49 41.23L97.35 41.10Q98.53 43.46 101.12 43.99L101.06 43.93L101.14 44.01Q102.51 44.27 103.95 44.31L104.02 44.38L103.90 44.25Q105.81 44.45 106.87 44.07L106.80 44.00L106.86 44.06Q106.12 45.49 103.46 45.83L103.59 45.96L103.60 45.97Q102.55 46.14 101.87 46.14L101.84 46.12L101.43 46.09L101.48 46.13Q98.64 46.11 96.96 45.16L96.86 45.06L95.19 46.81L95.21 46.84Q94.40 47.70 93.56 48.65L93.44 48.53L93.50 48.59Q94.44 49.08 95.43 49.27L95.51 49.35L94.71 50.29L94.55 50.14Q97.34 51.29 102.98 51.29L102.98 51.30L103.25 51.34L103.14 51.22Q106.82 51.28 110.39 51.17ZM104.39 31.99L104.34 31.95L104.41 32.02Q105.69 31.92 106.60 32.34L106.74 32.48L106.56 32.30Q106.87 32.91 106.95 33.60L106.84 33.49L106.96 33.61Q106.88 33.80 106.84 34.72L106.83 34.70L106.93 34.80Q106.89 36.74 105.79 38.04L105.66 37.91L105.80 38.04Q104.50 39.34 102.59 39.30L102.67 39.37L102.65 39.36Q101.30 39.38 100.47 38.96L100.31 38.80L100.33 38.82Q99.91 37.64 99.88 36.62L99.86 36.60L99.90 36.64Q99.75 32.26 104.35 31.96Z"/><path fill="#444" d="M17.40 28.94L17.28 28.82L17.39 28.94Q14.91 29.01 13.88 30.19L13.75 30.06L13.80 30.11Q12.77 31.28 12.77 33.91L12.85 33.99L12.67 33.81Q12.77 39.01 17.37 38.82L17.35 38.79L17.34 38.79Q19.43 38.97 20.78 37.41L20.88 37.51L20.88 37.51Q22.11 35.82 21.88 33.77L21.99 33.88L22.01 33.90Q21.85 31.19 20.98 30.16L21.04 30.23L21.15 30.34Q19.51 28.85 17.30 28.85ZM22.31 38.62L22.50 38.80L22.44 38.75Q21.15 41.11 16.46 41.11L16.63 41.27L15.03 41.12L15.18 41.27Q12.65 41.10 11.55 39.96L11.70 40.11L11.60 40.01Q10.62 39.04 10.36 36.64L10.33 36.61L10.26 36.54Q10.14 35.09 10.06 33.30L10.11 33.35L10.13 33.36Q10.06 32.34 9.91 30.40L9.91 30.41L9.85 30.35Q9.79 26.10 14.97 26.10L14.88 26.01L16.62 26.18L16.63 26.20Q19.40 26.07 21.49 27.37L21.53 27.40L21.44 27.31Q22.38 27.95 22.88 28.64L22.82 28.58L22.77 28.54Q23.13 27.83 23.67 26.19L23.66 26.19L23.52 26.05Q24.88 26.00 27.20 25.39L27.19 25.38L27.22 25.41Q24.51 29.51 24.51 34.76L24.59 34.84L24.56 34.81Q24.54 38.52 25.91 41.61L25.93 41.63L25.96 41.65Q24.78 41.31 22.87 41.08L22.91 41.12L22.89 41.10Q22.66 40.22 22.35 38.66ZM25.75 43.96L25.71 43.92L27.91 44.49L28.01 44.58Q29.12 44.78 30.11 45.23L30.15 45.28L30.11 45.24Q26.48 40.92 26.48 34.83L26.39 34.74L26.43 34.78Q26.42 30.24 28.55 26.43L28.65 26.53L28.58 26.46Q27.89 26.64 26.55 27.02L26.59 27.06L26.55 27.02Q26.87 26.24 27.75 24.72L27.88 24.84L27.94 24.90Q27.23 24.96 23.23 25.80L23.22 25.78L22.68 27.64L22.70 27.67Q20.89 25.89 16.47 25.66L16.56 25.75L16.46 25.64Q15.39 25.72 13.14 25.87L13.09 25.82L13.14 25.86Q9.44 26.20 9.55 30.24L9.65 30.33L9.51 30.20Q9.76 33.64 10.33 38.09L10.30 38.06L10.27 38.45L10.20 38.38Q10.42 39.33 11.22 40.43L11.14 40.35L11.24 40.45Q11.42 40.63 11.61 40.74L11.64 40.78L11.53 40.67Q11.87 41.23 12.25 41.80L12.12 41.67L12.24 41.79Q13.64 43.31 17.03 43.50L16.96 43.43L16.97 43.44Q18.57 43.52 18.73 43.52L18.87 43.66L20.30 43.53L20.44 43.68Q23.45 43.48 24.66 41.92L24.73 41.99L24.67 41.93Q25.03 42.55 25.64 43.85ZM19.16 31.17L19.23 31.23L19.16 31.16Q20.58 31.26 21.42 31.71L21.42 31.71L21.33 31.62Q21.54 32.33 21.54 33.77L21.65 33.89L21.68 33.91Q21.74 35.69 20.47 37.12L20.58 37.23L20.58 37.23Q19.36 38.71 17.46 38.52L17.33 38.40L17.35 38.41Q15.92 38.43 14.89 38.01L14.90 38.02L14.95 38.07Q14.67 37.14 14.67 35.93L14.69 35.94L14.66 35.92Q14.90 32.50 17.53 31.55L17.47 31.50L17.38 31.40Q18.43 31.23 19.23 31.23Z"/></svg>